<svg xmlns="http://www.w3.org/2000/svg" width="180" height="180" viewBox="0 0 180 180"><path d="M175.909,85.909H151.692L162.741,72.1a4.093,4.093,0,0,0-6.392-5.113l-15.136,18.92H99.875l28.636-28.636h22.851a4.091,4.091,0,1,0,0-8.182h-14.67l17.554-17.554a4.09,4.09,0,1,0-5.785-5.785L130.909,43.306V28.636a4.091,4.091,0,1,0-8.182,0V51.488L94.09,80.124V38.787l18.92-15.136a4.093,4.093,0,0,0-5.113-6.392L94.09,28.3V4.091a4.091,4.091,0,1,0-8.182,0V28.3L72.1,17.258a4.093,4.093,0,0,0-5.113,6.392l18.92,15.136V80.124L57.272,51.488V28.636a4.091,4.091,0,1,0-8.182,0v14.67L31.529,25.744a4.09,4.09,0,1,0-5.785,5.785L43.306,49.091H28.636a4.091,4.091,0,0,0,0,8.182H51.488L80.124,85.909H38.787L23.651,66.989A4.093,4.093,0,1,0,17.258,72.1L28.307,85.909H4.091a4.091,4.091,0,0,0,0,8.182H28.307L17.258,107.9a4.093,4.093,0,0,0,6.392,5.113l15.136-18.92H80.124L51.488,122.727H28.636a4.091,4.091,0,0,0,0,8.182h14.67l-17.57,17.57a4.09,4.09,0,1,0,5.785,5.785l17.57-17.57v14.67a4.091,4.091,0,1,0,8.182,0V128.512L85.909,99.876v41.337l-18.92,15.136a4.093,4.093,0,0,0,5.113,6.392L85.909,151.7v24.213a4.091,4.091,0,0,0,8.182,0V151.7L107.9,162.741a4.093,4.093,0,0,0,5.114-6.392l-18.92-15.136V99.876l28.636,28.636v22.851a4.091,4.091,0,1,0,8.182,0v-14.67l17.562,17.562a4.091,4.091,0,0,0,5.785-5.785l-17.562-17.562h14.67a4.091,4.091,0,1,0,0-8.182H128.512L99.876,94.09h41.337l15.136,18.92a4.093,4.093,0,0,0,6.392-5.113L151.693,94.09h24.216a4.091,4.091,0,1,0,0-8.181Z" fill="#5bc0be"/></svg>