<svg xmlns="http://www.w3.org/2000/svg" width="180" height="180" viewBox="0 0 180 180"><g transform="translate(-85.333)"><path d="M242.833,75H192.208V57.769C208.673,53.306,220.333,42.559,220.333,30c0-16.542-20.181-30-45-30s-45,13.458-45,30c0,12.56,11.66,23.306,28.125,27.769V75H107.833c-12.4,0-22.5,6.727-22.5,15v75c0,8.273,10.1,15,22.5,15h135c12.4,0,22.5-6.727,22.5-15V90C265.333,81.727,255.237,75,242.833,75ZM141.583,30c0-12.407,15.139-22.5,33.75-22.5s33.75,10.093,33.75,22.5-15.139,22.5-33.75,22.5S141.583,42.407,141.583,30Zm39.375,29.621V116.25c0,2.069-2.527,3.75-5.625,3.75s-5.625-1.681-5.625-3.75V59.621c1.863.158,3.7.379,5.625.379S179.1,59.778,180.958,59.621ZM159.494,120h0c2.33,4.355,8.515,7.5,15.839,7.5s13.509-3.144,15.839-7.5h23.536c3.109,0,5.625-1.677,5.625-3.75v-15c0-2.069,2.527-3.75,5.625-3.75s5.625,1.681,5.625,3.75v52.5c0,2.069-2.527,3.75-5.625,3.75s-5.625-1.681-5.625-3.75V135c0-2.073-2.516-3.75-5.625-3.75H186.583c-3.109,0-5.625,1.677-5.625,3.75v18.75c0,2.069-2.527,3.75-5.625,3.75s-5.625-1.681-5.625-3.75V135c0-2.073-2.516-3.75-5.625-3.75H135.958c-3.109,0-5.625,1.677-5.625,3.75v18.75c0,2.069-2.527,3.75-5.625,3.75s-5.625-1.681-5.625-3.75v-52.5c0-2.069,2.527-3.75,5.625-3.75s5.625,1.681,5.625,3.75v15c0,2.073,2.516,3.75,5.625,3.75h23.536Zm94.588,45c0,4.134-5.043,7.5-11.25,7.5h-135c-6.207,0-11.25-3.366-11.25-7.5V90c0-4.134,5.043-7.5,11.25-7.5h50.625v30H141.583V101.25c0-6.2-7.569-11.25-16.875-11.25s-16.875,5.046-16.875,11.25v52.5c0,6.2,7.569,11.25,16.875,11.25s16.875-5.046,16.875-11.25v-15h16.875v15c0,6.2,7.569,11.25,16.875,11.25s16.875-5.046,16.875-11.25v-15h16.875v15c0,6.2,7.57,11.25,16.875,11.25s16.875-5.046,16.875-11.25v-52.5c0-6.2-7.569-11.25-16.875-11.25s-16.875,5.046-16.875,11.25V112.5H192.208v-30h50.625c6.207,0,11.25,3.366,11.25,7.5Z" transform="translate(0)" fill="#5bc0be"/><path d="M235.833,42.666c-12.4,0-22.5,6.727-22.5,15,0,2.073,2.516,3.75,5.625,3.75s5.625-1.677,5.625-3.75c0-4.134,5.042-7.5,11.25-7.5,3.109,0,5.625-1.677,5.625-3.75S238.942,42.666,235.833,42.666Z" transform="translate(-60.5 -27.666)" fill="#5bc0be"/></g></svg>