<svg xmlns="http://www.w3.org/2000/svg" width="180" height="179.999" viewBox="0 0 180 179.999"><g transform="translate(0 -0.002)"><path d="M155.427,90.4,142.5,83.933V82.5a15.015,15.015,0,0,0-15-15h-3.75a3.748,3.748,0,0,0-3.75,3.75V75H105A14.967,14.967,0,0,0,90.754,85.538L87.217,76.7A26.252,26.252,0,0,0,100.7,45.877L88.03,2.7A3.746,3.746,0,0,0,83.375.151L40.2,12.819a3.754,3.754,0,0,0-2.545,4.655l12.667,43.18a25.911,25.911,0,0,0,29.768,18.41L84.46,90H45a15.015,15.015,0,0,0-15,15H22.5V93.751A3.748,3.748,0,0,0,18.75,90a18.75,18.75,0,0,0,0,37.5,3.748,3.748,0,0,0,3.75-3.75V112.5H30a14.955,14.955,0,0,0,7.243,12.774L30.037,175.72A3.749,3.749,0,0,0,33.75,180a29.648,29.648,0,0,0,25.7-14.912L80.926,127.5h6.756L75.4,152.073a3.75,3.75,0,0,0,6.709,3.355L96.068,127.5H120v3.75a3.748,3.748,0,0,0,3.75,3.75h3.75a15.015,15.015,0,0,0,15-15v-1.432l12.927-6.463a3.752,3.752,0,0,0,2.073-3.355v-15A3.753,3.753,0,0,0,155.427,90.4ZM15,119.36a11.254,11.254,0,0,1,0-21.218ZM49.143,30,45.9,18.96,81.888,8.406,88.222,30ZM80.786,71.255A18.751,18.751,0,0,1,57.517,58.543L51.344,37.5H90.422L93.5,47.986A18.744,18.744,0,0,1,80.786,71.255Zm-27.85,90.113a22.142,22.142,0,0,1-14.8,10.69l6.373-44.606c.166.006.322.05.489.05H72.288ZM120,120H45a7.51,7.51,0,0,1-7.5-7.5V105A7.51,7.51,0,0,1,45,97.5H93.75a3.748,3.748,0,0,0,3.75-3.75V90a7.51,7.51,0,0,1,7.5-7.5h15V120Zm15,0a7.51,7.51,0,0,1-7.5,7.5V75a7.51,7.51,0,0,1,7.5,7.5Zm15-13.568-7.5,3.75V92.319l7.5,3.75Z" transform="translate(0 0)" fill="#5bc0be"/><path d="M480.583,277.334h-7.5a3.75,3.75,0,0,0,0,7.5h7.5a3.75,3.75,0,0,0,0-7.5Z" transform="translate(-304.333 -179.833)" fill="#5bc0be"/><path d="M483.235,214.432a3.748,3.748,0,0,0-5.3,0l-7.5,7.5a3.749,3.749,0,1,0,5.3,5.3l7.5-7.5A3.748,3.748,0,0,0,483.235,214.432Z" transform="translate(-304.334 -138.333)" fill="#5bc0be"/><path d="M483.235,328.6l-7.5-7.5a3.749,3.749,0,1,0-5.3,5.3l7.5,7.5a3.75,3.75,0,0,0,5.3-5.3Z" transform="translate(-304.334 -207.499)" fill="#5bc0be"/></g></svg>