<svg xmlns="http://www.w3.org/2000/svg" width="180" height="180.001" viewBox="0 0 180 180.001"><g transform="translate(-0.001)"><path d="M57.667,384a15,15,0,1,0,15,15A15.015,15.015,0,0,0,57.667,384Zm0,22.5a7.5,7.5,0,1,1,7.5-7.5A7.51,7.51,0,0,1,57.667,406.5Z" transform="translate(-27.666 -248.999)" fill="#5bc0be"/><path d="M416.584,42.667a11.25,11.25,0,1,0,11.25,11.25A11.262,11.262,0,0,0,416.584,42.667Zm0,15a3.75,3.75,0,1,1,3.75-3.75A3.753,3.753,0,0,1,416.584,57.667Z" transform="translate(-262.833 -27.667)" fill="#5bc0be"/><path d="M153.751,0a26.219,26.219,0,0,0-25.685,31.633L115.238,44.461l-9.05-3.017a3.749,3.749,0,0,0-2.373,7.112l5.5,1.832-9.073,9.073-9.05-3.017a3.749,3.749,0,0,0-2.373,7.112l5.5,1.832-9.073,9.073-9.05-3.017a3.749,3.749,0,0,0-2.373,7.112l5.5,1.832-9.073,9.073-9.05-3.017a3.749,3.749,0,0,0-2.373,7.112l5.5,1.832L60,99.7,55.153,94.85a3.748,3.748,0,0,0-5.3,0l-22.5,22.5a3.684,3.684,0,0,0-1.026,3.023,29.923,29.923,0,1,0,33.305,33.305c.126.013.245.072.372.072a3.739,3.739,0,0,0,2.651-1.1l22.5-22.5a3.748,3.748,0,0,0,0-5.3L80.3,120,94.765,105.54l9.05,3.017a3.749,3.749,0,0,0,2.373-7.112l-5.5-1.832,9.073-9.073,9.05,3.017a3.749,3.749,0,1,0,2.373-7.112l-5.5-1.832,9.073-9.073,9.05,3.017a3.749,3.749,0,0,0,2.373-7.112l-5.5-1.832,9.073-9.073,9.05,3.017a3.749,3.749,0,1,0,2.373-7.112l-5.5-1.832,2.677-2.677A26.247,26.247,0,1,0,153.751,0ZM30,172.5A22.5,22.5,0,1,1,52.5,150,22.525,22.525,0,0,1,30,172.5Zm30-27.8-.6-.6a30.069,30.069,0,0,0-23.5-23.5l-.6-.6,17.2-17.2,24.7,24.7Zm15-30L65.3,105l6.961-6.961,14.546,4.849ZM92.738,96.961,78.192,92.112l9.073-9.073,14.546,4.849Zm15-15L93.192,77.112l9.073-9.073,14.546,4.849Zm15-15-14.546-4.849,9.073-9.073,14.546,4.849Zm15-15-14.546-4.849,7.883-7.883a26.26,26.26,0,0,0,9.7,9.7ZM153.751,45A18.75,18.75,0,1,1,172.5,26.25,18.772,18.772,0,0,1,153.751,45Z" fill="#5bc0be"/></g></svg>