<svg xmlns="http://www.w3.org/2000/svg" width="110" height="110" viewBox="0 0 110 110"><path d="M107.5,52.5H92.7l6.752-8.437a2.5,2.5,0,0,0-3.906-3.125L86.3,52.5H61.035L78.535,35H92.5a2.5,2.5,0,1,0,0-5H83.535L94.262,19.272a2.5,2.5,0,1,0-3.535-3.535L80,26.465V17.5a2.5,2.5,0,0,0-5,0V31.465l-17.5,17.5V23.7l11.562-9.25a2.5,2.5,0,0,0-3.125-3.906L57.5,17.3V2.5a2.5,2.5,0,1,0-5,0V17.3l-8.437-6.75a2.5,2.5,0,0,0-3.125,3.906L52.5,23.7V48.965L35,31.465V17.5a2.5,2.5,0,1,0-5,0v8.965L19.267,15.732a2.5,2.5,0,1,0-3.535,3.535L26.465,30H17.5a2.5,2.5,0,0,0,0,5H31.465l17.5,17.5H23.7l-9.25-11.562a2.5,2.5,0,1,0-3.906,3.125L17.3,52.5H2.5a2.5,2.5,0,0,0,0,5H17.3l-6.752,8.437a2.5,2.5,0,0,0,3.906,3.125L23.7,57.5H48.965L31.465,75H17.5a2.5,2.5,0,1,0,0,5h8.965L15.727,90.737a2.5,2.5,0,1,0,3.535,3.535L30,83.535V92.5a2.5,2.5,0,1,0,5,0V78.535l17.5-17.5V86.3l-11.562,9.25a2.5,2.5,0,0,0,3.125,3.906L52.5,92.7v14.8a2.5,2.5,0,0,0,5,0V92.7l8.437,6.75a2.5,2.5,0,0,0,3.125-3.906L57.5,86.3V61.035L75,78.535V92.5a2.5,2.5,0,1,0,5,0V83.535L90.732,94.267a2.5,2.5,0,1,0,3.535-3.535L83.535,80H92.5a2.5,2.5,0,1,0,0-5H78.535l-17.5-17.5H86.3l9.25,11.562a2.5,2.5,0,0,0,3.906-3.125L92.7,57.5h14.8a2.5,2.5,0,1,0,0-5Z" fill="#5bc0be"/></svg>