<svg xmlns="http://www.w3.org/2000/svg" width="110" height="110" viewBox="0 0 110 110"><g transform="translate(-85.333)"><path d="M181.583,45.833H150.645V35.3c10.062-2.727,17.187-9.295,17.187-16.97C167.833,8.224,155.5,0,140.333,0s-27.5,8.224-27.5,18.333c0,7.675,7.126,14.242,17.187,16.97v10.53H99.083c-7.58,0-13.75,4.111-13.75,9.167v45.833c0,5.056,6.17,9.167,13.75,9.167h82.5c7.58,0,13.75-4.111,13.75-9.167V55C195.333,49.945,189.163,45.833,181.583,45.833Zm-61.875-27.5c0-7.582,9.252-13.75,20.625-13.75s20.625,6.168,20.625,13.75-9.252,13.75-20.625,13.75S119.708,25.916,119.708,18.333Zm24.063,18.1V71.042c0,1.264-1.544,2.292-3.438,2.292s-3.438-1.027-3.438-2.292V36.435c1.139.1,2.26.232,3.438.232S142.632,36.531,143.771,36.435Zm-13.117,36.9h0c1.424,2.661,5.2,4.583,9.679,4.583s8.255-1.922,9.679-4.583H164.4c1.9,0,3.438-1.025,3.438-2.292V61.875c0-1.264,1.544-2.292,3.438-2.292s3.438,1.027,3.438,2.292V93.958c0,1.264-1.544,2.292-3.438,2.292s-3.438-1.027-3.438-2.292V82.5c0-1.267-1.538-2.292-3.438-2.292H147.208c-1.9,0-3.438,1.025-3.438,2.292V93.958c0,1.264-1.544,2.292-3.438,2.292s-3.438-1.027-3.438-2.292V82.5c0-1.267-1.538-2.292-3.438-2.292H116.27c-1.9,0-3.438,1.025-3.438,2.292V93.958c0,1.264-1.544,2.292-3.438,2.292s-3.438-1.027-3.438-2.292V61.875c0-1.264,1.544-2.292,3.438-2.292s3.438,1.027,3.438,2.292v9.167c0,1.267,1.538,2.292,3.438,2.292h14.383Zm57.8,27.5c0,2.527-3.082,4.583-6.875,4.583h-82.5c-3.793,0-6.875-2.057-6.875-4.583V55c0-2.527,3.082-4.583,6.875-4.583h30.937V68.75H119.708V61.875c0-3.791-4.626-6.875-10.312-6.875s-10.312,3.084-10.312,6.875V93.958c0,3.791,4.626,6.875,10.312,6.875s10.312-3.084,10.312-6.875V84.792h10.312v9.167c0,3.791,4.626,6.875,10.312,6.875s10.312-3.084,10.312-6.875V84.792h10.312v9.167c0,3.791,4.626,6.875,10.312,6.875s10.312-3.084,10.312-6.875V61.875c0-3.791-4.626-6.875-10.312-6.875s-10.312,3.084-10.312,6.875V68.75H150.645V50.417h30.937c3.793,0,6.875,2.057,6.875,4.583Z" transform="translate(0)" fill="#5bc0be"/><path d="M227.083,42.666c-7.58,0-13.75,4.111-13.75,9.167,0,1.267,1.538,2.292,3.438,2.292s3.438-1.025,3.438-2.292c0-2.527,3.082-4.583,6.875-4.583,1.9,0,3.438-1.025,3.438-2.292S228.983,42.666,227.083,42.666Z" transform="translate(-86.75 -33.499)" fill="#5bc0be"/></g></svg>