<svg xmlns="http://www.w3.org/2000/svg" width="110.001" height="110" viewBox="0 0 110.001 110"><g transform="translate(0 -0.002)"><path d="M94.984,55.243l-7.9-3.95v-.875a9.176,9.176,0,0,0-9.167-9.167H75.625a2.29,2.29,0,0,0-2.292,2.292v2.292H64.167a9.147,9.147,0,0,0-8.706,6.44l-2.161-5.4a16.043,16.043,0,0,0,8.237-18.835L53.8,1.648A2.289,2.289,0,0,0,50.952.093L24.564,7.834a2.294,2.294,0,0,0-1.555,2.845l7.741,26.388A15.834,15.834,0,0,0,48.941,48.317L51.615,55H27.5a9.176,9.176,0,0,0-9.167,9.167H13.75V57.293A2.29,2.29,0,0,0,11.458,55a11.458,11.458,0,0,0,0,22.917,2.29,2.29,0,0,0,2.292-2.292V68.751h4.583a9.139,9.139,0,0,0,4.426,7.807l-4.4,30.827A2.291,2.291,0,0,0,20.625,110a18.119,18.119,0,0,0,15.7-9.113L49.455,77.918h4.129L46.075,92.935a2.292,2.292,0,0,0,4.1,2.05l8.533-17.067H73.334V80.21A2.29,2.29,0,0,0,75.625,82.5h2.292a9.176,9.176,0,0,0,9.167-9.167V72.46l7.9-3.95a2.293,2.293,0,0,0,1.267-2.05V57.293A2.294,2.294,0,0,0,94.984,55.243ZM9.167,72.943a6.877,6.877,0,0,1,0-12.967ZM30.032,18.335l-1.98-6.747,21.99-6.45,3.871,13.2ZM49.37,43.545a11.459,11.459,0,0,1-14.22-7.768L31.377,22.918H55.258l1.879,6.407a11.455,11.455,0,0,1-7.768,14.22ZM32.35,98.615a13.531,13.531,0,0,1-9.044,6.533L27.2,77.888c.1,0,.2.03.3.03H44.177Zm40.984-25.28H27.5a4.589,4.589,0,0,1-4.583-4.583V64.168A4.589,4.589,0,0,1,27.5,59.585H57.292a2.29,2.29,0,0,0,2.292-2.292V55a4.589,4.589,0,0,1,4.583-4.583h9.167V73.335Zm9.167,0a4.589,4.589,0,0,1-4.583,4.583V45.835A4.589,4.589,0,0,1,82.5,50.418Zm9.167-8.292-4.583,2.292V56.418l4.583,2.292Z" fill="#5bc0be"/><path d="M476.208,277.334h-4.583a2.292,2.292,0,0,0,0,4.583h4.583a2.292,2.292,0,0,0,0-4.583Z" transform="translate(-368.499 -217.749)" fill="#5bc0be"/><path d="M477.829,214.005a2.291,2.291,0,0,0-3.241,0l-4.583,4.583a2.291,2.291,0,1,0,3.24,3.24l4.583-4.583A2.291,2.291,0,0,0,477.829,214.005Z" transform="translate(-368.5 -167.499)" fill="#5bc0be"/><path d="M477.829,325.254l-4.583-4.583a2.291,2.291,0,0,0-3.24,3.24l4.583,4.583a2.291,2.291,0,0,0,3.241-3.241Z" transform="translate(-368.5 -251.248)" fill="#5bc0be"/></g></svg>