<svg xmlns="http://www.w3.org/2000/svg" width="110" height="110" viewBox="0 0 110 110"><g transform="translate(-0.001)"><path d="M51.834,384A9.167,9.167,0,1,0,61,393.167,9.176,9.176,0,0,0,51.834,384Zm0,13.75a4.583,4.583,0,1,1,4.583-4.583A4.589,4.589,0,0,1,51.834,397.75Z" transform="translate(-33.499 -301.5)" fill="#5bc0be"/><path d="M412.209,42.667a6.875,6.875,0,1,0,6.875,6.875A6.883,6.883,0,0,0,412.209,42.667Zm0,9.167a2.292,2.292,0,1,1,2.292-2.292A2.293,2.293,0,0,1,412.209,51.834Z" transform="translate(-318.249 -33.5)" fill="#5bc0be"/><path d="M93.96,0a16.023,16.023,0,0,0-15.7,19.331l-7.84,7.84-5.531-1.844a2.291,2.291,0,0,0-1.45,4.346l3.359,1.12-5.544,5.544-5.531-1.844a2.291,2.291,0,1,0-1.45,4.346l3.359,1.12L52.09,45.5,46.56,43.661a2.291,2.291,0,0,0-1.45,4.346l3.359,1.12-5.544,5.544-5.531-1.844a2.291,2.291,0,1,0-1.45,4.346l3.359,1.12-2.634,2.634L33.7,57.964a2.291,2.291,0,0,0-3.241,0l-13.75,13.75a2.252,2.252,0,0,0-.627,1.847A18.286,18.286,0,1,0,36.441,93.915c.077.008.15.044.227.044a2.285,2.285,0,0,0,1.62-.671l13.75-13.75a2.291,2.291,0,0,0,0-3.241l-2.963-2.963L57.912,64.5l5.531,1.844a2.291,2.291,0,1,0,1.45-4.346l-3.359-1.12,5.544-5.544,5.531,1.844a2.291,2.291,0,1,0,1.45-4.346L70.7,51.707l5.544-5.544,5.531,1.844a2.291,2.291,0,1,0,1.45-4.346l-3.359-1.12L85.412,37l5.531,1.844a2.291,2.291,0,1,0,1.45-4.346l-3.359-1.12,1.636-1.636A16.04,16.04,0,1,0,93.96,0ZM18.334,105.417a13.75,13.75,0,1,1,13.75-13.75A13.765,13.765,0,0,1,18.334,105.417ZM36.668,88.426l-.365-.365A18.376,18.376,0,0,0,21.939,73.7l-.365-.365,10.51-10.51L47.177,77.917Zm9.167-18.333-5.926-5.926,4.254-4.254,8.889,2.963ZM56.674,59.254l-8.889-2.963,5.544-5.544,8.889,2.963Zm9.167-9.167-8.889-2.963L62.5,41.58l8.889,2.963Zm9.167-9.167-8.889-2.963,5.544-5.544,8.889,2.963Zm9.167-9.167-8.889-2.963L80.1,23.973A16.047,16.047,0,0,0,86.028,29.9ZM93.96,27.5a11.458,11.458,0,1,1,11.458-11.458A11.472,11.472,0,0,1,93.96,27.5Z" fill="#5bc0be"/></g></svg>