<svg xmlns="http://www.w3.org/2000/svg" width="80" height="60" viewBox="0 0 80 60"><g transform="translate(0 -64)"><circle cx="1.667" cy="1.667" r="1.667" transform="translate(38.333 70.666)" fill="#3a506b"/><path d="M223.206,169.192l-1.57-7.85a1.666,1.666,0,0,0-3.268,0l-1.57,7.85a6.667,6.667,0,1,0,6.408,0Zm-3.2,9.142A3.333,3.333,0,1,1,223.335,175,3.336,3.336,0,0,1,220,178.334Z" transform="translate(-180.001 -81.001)" fill="#3a506b"/><circle cx="1.667" cy="1.667" r="1.667" transform="translate(50 74)" fill="#3a506b"/><circle cx="1.667" cy="1.667" r="1.667" transform="translate(26.666 74)" fill="#3a506b"/><circle cx="1.667" cy="1.667" r="1.667" transform="translate(20 80.666)" fill="#3a506b"/><circle cx="1.667" cy="1.667" r="1.667" transform="translate(56.666 80.666)" fill="#3a506b"/><circle cx="1.667" cy="1.667" r="1.667" transform="translate(20 100.666)" fill="#3a506b"/><circle cx="1.667" cy="1.667" r="1.667" transform="translate(56.666 100.666)" fill="#3a506b"/><circle cx="1.667" cy="1.667" r="1.667" transform="translate(60 90.666)" fill="#3a506b"/><circle cx="1.667" cy="1.667" r="1.667" transform="translate(16.666 90.666)" fill="#3a506b"/><path d="M225,384H215a1.667,1.667,0,1,0,0,3.333h10A1.667,1.667,0,1,0,225,384Z" transform="translate(-180 -270)" fill="#3a506b"/><path d="M66.183,79.4a29.96,29.96,0,0,0-52.357-.014,23.314,23.314,0,0,0,17.28,43.27,30.053,30.053,0,0,0,17.793,0A23.309,23.309,0,0,0,66.183,79.4ZM40,67.333a26.618,26.618,0,0,1,23.059,40H16.942A26.618,26.618,0,0,1,40,67.333ZM23.333,120.667a19.962,19.962,0,0,1-11.793-36.1,29.9,29.9,0,0,0,14.305,35.868A20.132,20.132,0,0,1,23.333,120.667Zm16.667,0a26.615,26.615,0,0,1-20.783-10H60.784A26.616,26.616,0,0,1,40,120.667Zm16.667,0a20.034,20.034,0,0,1-2.511-.229,29.9,29.9,0,0,0,14.3-35.875,19.966,19.966,0,0,1-11.79,36.1Z" transform="translate(0)" fill="#3a506b"/></g></svg>